<svg width="48" height="49" viewBox="0 0 48 49" fill="none" xmlns="http://www.w3.org/2000/svg">
<circle cx="24" cy="24.488" r="24" fill="#D65CB1"/>
<path d="M26.0008 33.488H22.0008M30.0008 20.488C30.0008 18.8967 29.3686 17.3706 28.2434 16.2454C27.1182 15.1202 25.5921 14.488 24.0008 14.488C22.4095 14.488 20.8833 15.1202 19.7581 16.2454C18.6329 17.3706 18.0008 18.8967 18.0008 20.488C18.0008 23.5782 17.2212 25.694 16.3504 27.0934C15.6159 28.2739 15.2486 28.8641 15.2621 29.0288C15.277 29.2111 15.3156 29.2806 15.4625 29.3896C15.5952 29.488 16.1933 29.488 17.3896 29.488H30.6119C31.8082 29.488 32.4063 29.488 32.539 29.3896C32.6859 29.2806 32.7245 29.2111 32.7394 29.0288C32.7529 28.8641 32.3856 28.2739 31.6511 27.0935C30.7803 25.694 30.0008 23.5782 30.0008 20.488Z" stroke="white" stroke-width="2" stroke-linecap="round" stroke-linejoin="round"/>
</svg>
