<?xml version="1.0" standalone="no"?>
<!DOCTYPE svg PUBLIC "-//W3C//DTD SVG 20010904//EN"
 "http://www.w3.org/TR/2001/REC-SVG-20010904/DTD/svg10.dtd">
<svg version="1.0" xmlns="http://www.w3.org/2000/svg"
 width="2000.000000pt" height="2000.000000pt" viewBox="0 0 2000.000000 2000.000000"
 preserveAspectRatio="xMidYMid meet">

<g transform="translate(0.000000,2000.000000) scale(0.100000,-0.100000)"
fill="#000000" stroke="none">
<path d="M14330 14513 c0 -4 26 -26 56 -48 77 -55 229 -215 289 -305 138 -206
217 -437 234 -685 l8 -110 2 86 c4 240 -102 545 -264 760 -92 123 -326 340
-325 302z"/>
<path d="M13190 13891 c-89 -28 -178 -97 -233 -180 -16 -24 -16 -24 70 -83
l86 -58 36 38 c52 56 108 82 178 82 71 0 119 -24 145 -71 38 -71 21 -119 -85
-243 -86 -100 -114 -150 -123 -219 l-7 -47 110 0 110 0 7 38 c6 41 24 66 128
187 90 104 111 159 106 280 -5 108 -25 153 -94 214 -66 58 -146 81 -278 80
-68 0 -119 -6 -156 -18z"/>
<path d="M14893 13100 c-7 -47 -15 -96 -19 -110 -4 -19 -3 -21 5 -10 14 20 34
138 30 175 -3 19 -9 -2 -16 -55z"/>
<path d="M13301 12952 c-63 -32 -87 -110 -55 -178 47 -98 201 -99 247 -1 60
126 -67 244 -192 179z"/>
<path d="M9789 12786 c-193 -28 -422 -103 -634 -206 -72 -35 -129 -55 -203
-70 -260 -52 -491 -180 -692 -380 -160 -161 -275 -344 -344 -550 -53 -159 -69
-275 -63 -460 8 -232 31 -342 173 -816 129 -433 159 -606 151 -849 -7 -184
-25 -265 -106 -459 -75 -177 -85 -217 -79 -315 10 -177 142 -323 359 -396 57
-20 210 -55 236 -55 8 0 -58 -71 -432 -460 -390 -406 -495 -518 -495 -528 0
-10 213 -275 315 -392 109 -125 293 -304 375 -364 147 -109 282 -152 449 -144
106 5 169 27 210 72 14 14 28 26 33 26 4 0 8 -101 8 -225 l0 -226 -32 5 c-89
15 -311 37 -315 32 -4 -3 10 -61 31 -128 102 -343 164 -671 216 -1131 11 -98
31 -230 46 -294 93 -417 366 -940 629 -1209 l80 -82 155 1 c376 2 625 -104
1342 -571 235 -153 304 -192 342 -192 29 0 43 20 313 472 l195 326 29 -33 c42
-47 329 -242 418 -283 284 -130 321 -154 321 -208 0 -31 -60 -97 -119 -132
l-46 -27 250 -3 c456 -6 845 28 895 78 28 28 12 81 -80 265 -166 336 -584 988
-773 1208 -54 63 -99 91 -164 102 -49 8 -142 -9 -195 -36 l-36 -18 68 147 c87
187 99 225 110 336 8 90 -4 358 -18 397 -6 16 -31 -5 -160 -134 l-152 -152 16
-50 c29 -94 5 -186 -121 -456 -88 -190 -154 -295 -237 -376 -62 -60 -192 -154
-261 -190 -99 -50 -163 -11 -123 74 17 35 14 33 -54 -30 -127 -120 -180 -148
-210 -112 -7 8 -10 32 -8 54 3 36 2 38 -18 31 -28 -11 -66 9 -82 43 -11 23
-11 35 3 80 9 28 18 57 21 64 3 7 -2 10 -14 6 -28 -7 -52 23 -52 66 0 51 52
154 205 410 152 255 172 296 153 318 -11 13 -32 14 -154 8 -113 -5 -148 -4
-176 8 -74 31 -100 93 -55 134 34 31 76 50 241 108 83 29 180 65 216 80 55 24
79 28 153 28 l89 0 269 538 269 538 -36 118 c-85 282 -148 472 -177 528 -18
33 -32 64 -32 68 0 5 41 25 90 45 198 82 436 225 614 368 98 79 253 225 281
265 l20 27 -127 164 c-391 504 -691 848 -862 988 -50 41 -91 77 -91 81 0 3 30
29 68 56 84 63 215 199 271 282 102 150 170 342 191 540 20 190 -16 403 -98
573 -20 42 -30 71 -22 65 8 -7 77 -68 154 -136 l139 -123 16 28 c11 21 16 56
16 120 0 84 -2 95 -38 167 -68 137 -187 242 -348 306 -42 17 -157 53 -255 80
-327 91 -380 115 -490 225 -110 110 -157 207 -268 548 -94 291 -141 397 -244
550 -280 418 -585 650 -972 739 -113 26 -351 33 -481 15z m-1199 -1006 c17
-27 69 -85 115 -129 67 -62 105 -89 187 -130 57 -28 121 -53 144 -57 l41 -6
-23 123 c-13 68 -26 137 -28 152 -5 23 13 10 123 -91 71 -65 181 -158 243
-207 62 -49 104 -85 93 -81 -41 15 -171 29 -208 22 -49 -9 -68 -43 -44 -79 14
-22 24 -25 104 -29 105 -5 178 -34 260 -104 43 -37 58 -45 79 -40 34 9 46 43
27 80 l-15 28 44 -26 c62 -39 227 -121 332 -168 160 -70 181 -107 201 -358 27
-351 62 -560 126 -760 69 -213 262 -775 325 -947 l74 -203 -41 -37 c-236 -213
-563 -383 -739 -383 -63 0 -141 40 -173 89 -48 72 -61 129 -72 317 -5 87 -34
217 -52 235 -4 4 -71 10 -148 13 -513 16 -966 290 -1179 713 -78 157 -128 362
-156 648 -12 124 -4 466 14 590 32 218 34 223 80 250 70 40 153 54 275 45 34
-3 47 1 57 15 19 25 18 38 -4 65 -30 37 -177 39 -299 4 -17 -5 -23 -2 -23 9 0
21 80 228 115 298 24 48 107 189 111 189 1 0 16 -22 34 -50z m2478 -765 c159
-73 233 -197 233 -387 0 -85 -4 -111 -33 -195 -39 -114 -88 -193 -163 -262
-86 -78 -132 -96 -245 -96 -86 0 -100 3 -148 29 -60 34 -102 85 -134 166 -20
48 -23 73 -22 205 0 136 3 158 27 230 57 169 148 281 272 332 45 19 147 8 213
-22z"/>
<path d="M9382 10837 c-43 -25 -57 -57 -57 -134 0 -63 3 -76 30 -114 54 -77
127 -74 161 6 50 122 -44 293 -134 242z"/>
<path d="M8478 10778 c-30 -11 -68 -78 -68 -122 0 -130 104 -232 167 -163 34
36 43 63 43 119 -1 113 -69 193 -142 166z"/>
<path d="M9494 10041 c-41 -39 -92 -73 -155 -104 -81 -39 -257 -107 -278 -107
-3 0 -18 20 -31 45 -26 48 -30 50 -95 25 -32 -12 -32 -22 9 -105 48 -99 132
-215 156 -215 22 0 163 51 217 79 180 91 280 261 244 413 l-6 26 -61 -57z"/>
<path d="M5525 10022 l-60 -16 81 -12 c137 -22 236 -78 356 -201 239 -245 388
-637 388 -1020 0 -283 -82 -509 -225 -623 -39 -31 -43 -32 -117 -28 -173 10
-358 149 -515 387 -98 148 -172 339 -215 552 -27 137 -32 389 -9 504 32 164
92 287 183 376 l59 58 -45 -13 c-154 -46 -265 -186 -324 -405 -23 -87 -26
-114 -26 -286 0 -213 16 -311 79 -503 117 -349 339 -624 567 -701 43 -15 87
-21 143 -21 l82 0 48 -162 c26 -90 49 -166 51 -169 7 -12 164 83 164 99 0 8
-18 73 -40 144 -22 72 -40 135 -40 142 0 6 23 25 51 41 105 61 194 200 241
370 19 70 22 106 22 290 0 196 -2 218 -28 330 -121 518 -434 889 -745 884 -36
-1 -93 -8 -126 -17z"/>
<path d="M12490 8647 c0 -3 45 -53 101 -109 124 -127 254 -275 355 -408 43
-55 80 -98 82 -95 6 6 -113 163 -213 280 -103 121 -325 348 -325 332z"/>
<path d="M13081 7965 c-1 -5 19 -32 44 -60 24 -27 44 -45 44 -40 1 6 -19 33
-44 60 -24 28 -44 46 -44 40z"/>
<path d="M6185 7487 c-38 -17 -71 -32 -72 -32 -3 -1 168 -568 172 -573 4 -5
158 40 168 49 5 4 -4 51 -19 105 -23 82 -35 107 -69 144 -50 55 -68 84 -84
132 -13 39 -17 155 -6 188 8 27 -5 25 -90 -13z"/>
<path d="M2740 7472 c0 -16 5 -110 10 -208 78 -1374 398 -2578 1012 -3816 70
-142 126 -258 124 -258 -1 0 -57 62 -123 138 -164 186 -515 530 -698 682 -271
226 -517 399 -760 534 -114 63 -332 162 -340 154 -8 -8 62 -156 114 -241 188
-312 496 -679 1092 -1302 362 -379 531 -530 780 -695 130 -86 322 -183 445
-226 l82 -28 97 78 c775 630 1220 1292 1433 2131 102 402 148 765 159 1275 6
279 6 285 -13 269 -10 -9 -120 -97 -244 -195 -285 -226 -401 -326 -521 -451
-171 -177 -305 -375 -458 -680 -231 -463 -368 -903 -435 -1403 l-14 -105 -1
275 c-2 328 -16 825 -31 1040 -37 534 -181 1037 -445 1555 -177 347 -349 595
-614 883 -73 79 -473 465 -608 586 l-43 38 0 -30z"/>
<path d="M16694 5657 c-215 -222 -363 -397 -499 -592 -287 -410 -465 -843
-520 -1265 -19 -142 -35 -539 -36 -910 l-1 -305 -14 95 c-60 390 -181 734
-466 1320 -168 345 -297 565 -456 775 -74 98 -342 375 -362 375 -29 0 11 -499
61 -760 159 -830 591 -1631 1131 -2095 l110 -94 65 24 c193 73 397 211 595
403 283 274 452 483 548 677 87 177 87 171 -7 132 -255 -104 -496 -263 -712
-472 l-103 -100 55 110 c316 633 557 1401 661 2100 31 209 75 695 63 695 -2 0
-53 -51 -113 -113z"/>
<path d="M17048 4116 c-181 -79 -361 -227 -462 -380 -44 -66 -86 -145 -86
-162 0 -1 27 7 61 18 173 58 476 333 568 516 26 52 21 52 -81 8z"/>
<path d="M6352 3645 c-246 -95 -496 -280 -833 -615 -178 -177 -267 -285 -352
-428 -42 -72 -117 -232 -117 -252 0 -13 157 43 263 93 417 198 809 589 1035
1033 79 156 94 194 79 194 -7 -1 -40 -12 -75 -25z"/>
<path d="M7832 2921 l-54 -27 57 -44 c124 -96 247 -251 275 -350 l8 -28 -105
-7 c-175 -12 -368 -1 -434 24 -77 29 -135 74 -167 127 -34 55 -35 55 -207 -38
-288 -156 -515 -331 -570 -441 -30 -62 -31 -76 -4 -155 19 -57 24 -63 57 -71
117 -31 387 -40 647 -21 405 30 1125 138 1509 226 165 38 150 12 143 243 -6
174 -25 452 -31 459 -2 1 -95 -42 -207 -97 -202 -97 -406 -184 -464 -195 -29
-6 -31 -5 -53 57 -54 151 -169 295 -276 345 -57 27 -59 27 -124 -7z"/>
</g>
</svg>
