<svg width="20" height="21" viewBox="0 0 20 21" fill="none" xmlns="http://www.w3.org/2000/svg">
<g clip-path="url(#clip0_3725_4016)">
<path d="M13.125 0.128906H6.875C5.05164 0.128906 3.30295 0.853235 2.01364 2.14255C0.724328 3.43186 0 5.18054 0 7.00391L0 9.50391C0 11.3273 0.724328 13.076 2.01364 14.3653C3.30295 15.6546 5.05164 16.3789 6.875 16.3789H7.5V19.5039C7.49928 19.628 7.53554 19.7496 7.60417 19.853C7.67279 19.9565 7.77067 20.0372 7.88532 20.0848C7.99998 20.1324 8.12621 20.1448 8.24793 20.1203C8.36964 20.0959 8.48133 20.0358 8.56875 19.9477L12.1313 16.3789H13.125C14.9484 16.3789 16.697 15.6546 17.9864 14.3653C19.2757 13.076 20 11.3273 20 9.50391V7.00391C20 5.18054 19.2757 3.43186 17.9864 2.14255C16.697 0.853235 14.9484 0.128906 13.125 0.128906ZM18.75 9.50391C18.75 10.9958 18.1574 12.4265 17.1025 13.4814C16.0476 14.5363 14.6168 15.1289 13.125 15.1289H11.875C11.7927 15.1284 11.7112 15.1442 11.6351 15.1753C11.5589 15.2064 11.4897 15.2522 11.4313 15.3102L8.75 17.9977V15.7539C8.75 15.5881 8.68415 15.4292 8.56694 15.312C8.44973 15.1948 8.29076 15.1289 8.125 15.1289H6.875C5.38316 15.1289 3.95242 14.5363 2.89752 13.4814C1.84263 12.4265 1.25 10.9958 1.25 9.50391V7.00391C1.25 5.51206 1.84263 4.08132 2.89752 3.02643C3.95242 1.97154 5.38316 1.37891 6.875 1.37891H13.125C14.6168 1.37891 16.0476 1.97154 17.1025 3.02643C18.1574 4.08132 18.75 5.51206 18.75 7.00391V9.50391Z" fill="#845DC2"/>
<path d="M12.6312 11.1789C12.9517 10.6788 13.1229 10.0978 13.125 9.50391V7.00391C13.125 6.1751 12.7958 5.38025 12.2097 4.7942C11.6237 4.20815 10.8288 3.87891 10 3.87891C9.1712 3.87891 8.37634 4.20815 7.79029 4.7942C7.20424 5.38025 6.875 6.1751 6.875 7.00391V9.50391C6.87528 10.0711 7.02992 10.6275 7.32234 11.1135C7.61476 11.5995 8.03393 11.9967 8.53492 12.2627C9.03592 12.5286 9.59983 12.6531 10.1662 12.6229C10.7326 12.5928 11.2801 12.409 11.75 12.0914C12.1405 12.4106 12.6216 12.5987 13.125 12.6289H14.375V11.3789H13.125C12.946 11.3558 12.7759 11.2869 12.6312 11.1789ZM11.875 9.50391C11.875 10.0012 11.6775 10.4781 11.3258 10.8297C10.9742 11.1814 10.4973 11.3789 10 11.3789C9.50272 11.3789 9.02581 11.1814 8.67417 10.8297C8.32254 10.4781 8.125 10.0012 8.125 9.50391V7.00391C8.125 6.50663 8.32254 6.02971 8.67417 5.67808C9.02581 5.32645 9.50272 5.12891 10 5.12891C10.4973 5.12891 10.9742 5.32645 11.3258 5.67808C11.6775 6.02971 11.875 6.50663 11.875 7.00391V9.50391Z" fill="#845DC2"/>
</g>
<defs>
<clipPath id="clip0_3725_4016">
<rect width="20" height="20" fill="white" transform="translate(0 0.128906)"/>
</clipPath>
</defs>
</svg>
