<svg width="22" height="22" viewBox="0 0 22 22" fill="none" xmlns="http://www.w3.org/2000/svg">
<path d="M10.9955 12.3193H11.0045" stroke="#845DC2" stroke-width="2" stroke-linecap="round" stroke-linejoin="round"/>
<path d="M10.9998 9.92969V9.71973C10.9998 9.03973 11.4198 8.67971 11.8398 8.38971C12.2498 8.10971 12.6598 7.74972 12.6598 7.08972C12.6598 6.16972 11.9198 5.42969 10.9998 5.42969C10.0798 5.42969 9.33984 6.16972 9.33984 7.08972" stroke="#845DC2" stroke-width="2" stroke-linecap="round" stroke-linejoin="round"/>
<path d="M16 17.0001H12L7.54999 19.96C6.88999 20.4 6 19.9301 6 19.1301V17.0001C3 17.0001 1 15.0001 1 12.0001V6C1 3 3 1 6 1H16C19 1 21 3 21 6V12.0001C21 15.0001 19 17.0001 16 17.0001Z" stroke="#845DC2" stroke-width="2" stroke-miterlimit="10" stroke-linecap="round" stroke-linejoin="round"/>
</svg>
