<svg width="24" height="23" viewBox="0 0 24 23" fill="none" xmlns="http://www.w3.org/2000/svg">
<path id="Vector" d="M3.20339 20.8814L4.62712 22.2519L5.38983 22.986L6.10169 22.3008L5.33898 21.5667L8.08475 18.9726L8.84746 19.7068L10.3729 21.1262L11.0847 20.4409L9.55932 19.0215L18.5593 10.4562C18.8644 10.1626 19.0169 9.81994 19.0169 9.42839C19.0169 9.03683 18.8644 8.69422 18.5593 8.40055L20.2373 6.83432L19.9322 4.7297L24 0.814131L23.2881 0.128906L19.1695 4.04448L16.9322 3.70186L15.2542 5.31704C14.6949 4.77865 13.7288 4.77865 13.1186 5.31704L4.16949 13.8334L2.64407 12.414L1.9322 13.0992L3.45763 14.5186L4.22034 15.2528L1.47458 17.8469L0.711864 17.1127L0 17.7979L3.20339 20.8814ZM17.339 4.7297L18.9661 4.97442L19.2203 6.49171L17.8983 7.71532L17.1356 7.07904L16.0169 6.00226L17.339 4.7297ZM13.8814 5.95332C14.0847 5.75754 14.3898 5.75754 14.5424 5.95332L17.8475 9.08577C17.9492 9.18366 18 9.28155 18 9.37944C18 9.47733 17.9492 9.62416 17.8475 9.67311L16.9831 10.6031L15 8.69422L14.2881 9.37944L16.2712 11.2883L15.1525 12.3651L13.1695 10.4562L12.4576 11.1414L14.4407 13.0503L13.322 14.1271L11.339 12.2182L10.6271 12.9035L12.6102 14.8123L11.4915 15.8891L9.50847 13.9802L8.79661 14.6655L10.7797 16.5743L8.8983 18.3363L4.88136 14.5186L13.8814 5.95332ZM4.9322 15.938L6.15254 17.1127L7.37288 18.2874L4.62712 20.8814L2.18644 18.581L4.9322 15.938Z" fill="#835EC1"/>
</svg>
